<mxfile host="65bd71144e">
    <diagram id="pk4TedHhOKjs3GF4rerG" name="Page-1">
        <mxGraphModel dx="876" dy="617" grid="1" gridSize="10" guides="1" tooltips="1" connect="1" arrows="1" fold="1" page="1" pageScale="1" pageWidth="850" pageHeight="1100" math="0" shadow="0">
            <root>
                <mxCell id="0"/>
                <mxCell id="1" parent="0"/>
                <mxCell id="2" value=":Halaman login" style="rounded=0;whiteSpace=wrap;html=1;fillColor=none;strokeWidth=3;fontSize=13;fontStyle=1" vertex="1" parent="1">
                    <mxGeometry x="120" y="40" width="210" height="60" as="geometry"/>
                </mxCell>
                <mxCell id="3" value="&lt;span&gt;:user&lt;/span&gt;" style="rounded=0;whiteSpace=wrap;html=1;fillColor=none;strokeWidth=3;fontSize=13;fontStyle=1" vertex="1" parent="1">
                    <mxGeometry x="400" y="40" width="200" height="60" as="geometry"/>
                </mxCell>
                <mxCell id="5" value="" style="endArrow=classic;html=1;exitX=1.1;exitY=0.043;exitDx=0;exitDy=0;exitPerimeter=0;strokeWidth=3;fontSize=13;fontStyle=1" edge="1" parent="1" source="11">
                    <mxGeometry width="50" height="50" relative="1" as="geometry">
                        <mxPoint x="400" y="330" as="sourcePoint"/>
                        <mxPoint x="230" y="162" as="targetPoint"/>
                    </mxGeometry>
                </mxCell>
                <mxCell id="6" value="" style="endArrow=classic;html=1;entryX=1.153;entryY=0.156;entryDx=0;entryDy=0;entryPerimeter=0;dashed=1;exitX=0.1;exitY=0.692;exitDx=0;exitDy=0;exitPerimeter=0;strokeWidth=3;fontSize=13;fontStyle=1" edge="1" parent="1" source="13" target="11">
                    <mxGeometry width="50" height="50" relative="1" as="geometry">
                        <mxPoint x="230" y="200" as="sourcePoint"/>
                        <mxPoint x="240" y="172" as="targetPoint"/>
                    </mxGeometry>
                </mxCell>
                <mxCell id="7" value="Mengakses sistem()" style="text;html=1;align=center;verticalAlign=middle;whiteSpace=wrap;rounded=0;strokeWidth=3;fontSize=13;fontStyle=1" vertex="1" parent="1">
                    <mxGeometry x="70" y="130" width="130" height="30" as="geometry"/>
                </mxCell>
                <mxCell id="8" value="Menampilkan Halaman&amp;nbsp;&lt;div&gt;Login()&lt;/div&gt;" style="text;html=1;align=center;verticalAlign=middle;resizable=0;points=[];autosize=1;strokeColor=none;fillColor=none;strokeWidth=3;fontSize=13;fontStyle=1" vertex="1" parent="1">
                    <mxGeometry x="55" y="180" width="160" height="40" as="geometry"/>
                </mxCell>
                <mxCell id="9" value="Akses()" style="text;html=1;align=center;verticalAlign=middle;resizable=0;points=[];autosize=1;strokeColor=none;fillColor=none;strokeWidth=3;fontSize=13;fontStyle=1" vertex="1" parent="1">
                    <mxGeometry x="245" y="138" width="70" height="30" as="geometry"/>
                </mxCell>
                <mxCell id="10" value="" style="endArrow=none;dashed=1;html=1;dashPattern=1 3;strokeWidth=3;fontSize=13;fontStyle=1" edge="1" parent="1">
                    <mxGeometry width="50" height="50" relative="1" as="geometry">
                        <mxPoint x="36" y="670" as="sourcePoint"/>
                        <mxPoint x="36" y="100" as="targetPoint"/>
                    </mxGeometry>
                </mxCell>
                <mxCell id="11" value="" style="rounded=0;whiteSpace=wrap;html=1;fillColor=default;strokeWidth=3;fontSize=13;fontStyle=1" vertex="1" parent="1">
                    <mxGeometry x="30" y="140" width="10" height="510" as="geometry"/>
                </mxCell>
                <mxCell id="12" value="" style="endArrow=none;dashed=1;html=1;dashPattern=1 3;strokeWidth=3;fontSize=13;fontStyle=1" edge="1" parent="1" source="81">
                    <mxGeometry width="50" height="50" relative="1" as="geometry">
                        <mxPoint x="237.58" y="676" as="sourcePoint"/>
                        <mxPoint x="240" y="110" as="targetPoint"/>
                    </mxGeometry>
                </mxCell>
                <mxCell id="13" value="" style="rounded=0;whiteSpace=wrap;html=1;fillColor=default;strokeWidth=3;fontSize=13;fontStyle=1" vertex="1" parent="1">
                    <mxGeometry x="235" y="146" width="10" height="104" as="geometry"/>
                </mxCell>
                <mxCell id="14" value="" style="endArrow=none;dashed=1;html=1;dashPattern=1 3;strokeWidth=3;fontSize=13;fontStyle=1" edge="1" parent="1" target="15">
                    <mxGeometry width="50" height="50" relative="1" as="geometry">
                        <mxPoint x="237.58" y="676" as="sourcePoint"/>
                        <mxPoint x="237.58" y="126" as="targetPoint"/>
                    </mxGeometry>
                </mxCell>
                <mxCell id="15" value="" style="rounded=0;whiteSpace=wrap;html=1;fillColor=default;strokeWidth=3;fontSize=13;fontStyle=1" vertex="1" parent="1">
                    <mxGeometry x="235" y="440" width="10" height="140" as="geometry"/>
                </mxCell>
                <mxCell id="16" value="" style="endArrow=classic;html=1;exitX=1.2;exitY=0.675;exitDx=0;exitDy=0;strokeWidth=3;fontSize=13;fontStyle=1;entryX=-0.1;entryY=0.23;entryDx=0;entryDy=0;entryPerimeter=0;exitPerimeter=0;" edge="1" parent="1" source="81" target="40">
                    <mxGeometry width="50" height="50" relative="1" as="geometry">
                        <mxPoint x="243" y="401" as="sourcePoint"/>
                        <mxPoint x="470" y="320" as="targetPoint"/>
                    </mxGeometry>
                </mxCell>
                <mxCell id="20" value="Mengakses Sistem()" style="text;html=1;align=center;verticalAlign=middle;resizable=0;points=[];autosize=1;strokeColor=none;fillColor=none;strokeWidth=3;fontSize=13;fontStyle=1" vertex="1" parent="1">
                    <mxGeometry x="290" y="315" width="140" height="30" as="geometry"/>
                </mxCell>
                <mxCell id="23" value="" style="endArrow=classic;html=1;entryX=1.2;entryY=0.822;entryDx=0;entryDy=0;entryPerimeter=0;dashed=1;exitX=0.453;exitY=0.866;exitDx=0;exitDy=0;exitPerimeter=0;strokeWidth=3;fontSize=13;fontStyle=1" edge="1" parent="1" source="15" target="11">
                    <mxGeometry width="50" height="50" relative="1" as="geometry">
                        <mxPoint x="230" y="560" as="sourcePoint"/>
                        <mxPoint x="40" y="560" as="targetPoint"/>
                    </mxGeometry>
                </mxCell>
                <mxCell id="24" value="&lt;div&gt;Menampilkan halaman&amp;nbsp;&lt;/div&gt;&lt;div&gt;halaman utama/dashboard&amp;nbsp;&lt;/div&gt;&lt;div&gt;sistem()&lt;/div&gt;" style="text;html=1;align=center;verticalAlign=middle;resizable=0;points=[];autosize=1;strokeColor=none;fillColor=none;strokeWidth=3;fontSize=13;fontStyle=1" vertex="1" parent="1">
                    <mxGeometry x="60" y="500" width="180" height="60" as="geometry"/>
                </mxCell>
                <mxCell id="26" value="" style="edgeStyle=elbowEdgeStyle;elbow=horizontal;endArrow=classic;html=1;curved=0;rounded=0;endSize=8;startSize=8;strokeWidth=3;fontSize=13;fontStyle=1;entryX=1.2;entryY=0.673;entryDx=0;entryDy=0;entryPerimeter=0;exitX=0.071;exitY=0.833;exitDx=0;exitDy=0;exitPerimeter=0;" edge="1" parent="1" source="9" target="13">
                    <mxGeometry width="50" height="50" relative="1" as="geometry">
                        <mxPoint x="310" y="200" as="sourcePoint"/>
                        <mxPoint x="300" y="260" as="targetPoint"/>
                        <Array as="points">
                            <mxPoint x="312" y="170"/>
                        </Array>
                    </mxGeometry>
                </mxCell>
                <mxCell id="27" value="Mengakses sistem()" style="text;html=1;align=center;verticalAlign=middle;resizable=0;points=[];autosize=1;strokeColor=none;fillColor=none;strokeWidth=3;fontSize=13;fontStyle=1" vertex="1" parent="1">
                    <mxGeometry x="65" y="285" width="140" height="30" as="geometry"/>
                </mxCell>
                <mxCell id="34" value="" style="endArrow=none;dashed=1;html=1;dashPattern=1 3;strokeWidth=3;fontSize=13;fontStyle=1" edge="1" parent="1">
                    <mxGeometry width="50" height="50" relative="1" as="geometry">
                        <mxPoint x="478" y="680" as="sourcePoint"/>
                        <mxPoint x="478.47" y="115" as="targetPoint"/>
                    </mxGeometry>
                </mxCell>
                <mxCell id="39" value="" style="shape=actor;whiteSpace=wrap;html=1;fillColor=none;strokeWidth=3;fontSize=13;fontStyle=1" vertex="1" parent="1">
                    <mxGeometry x="15" y="10" width="40" height="60" as="geometry"/>
                </mxCell>
                <mxCell id="40" value="" style="rounded=0;whiteSpace=wrap;html=1;fillColor=default;strokeWidth=3;fontSize=13;fontStyle=1" vertex="1" parent="1">
                    <mxGeometry x="474" y="290" width="10" height="270" as="geometry"/>
                </mxCell>
                <mxCell id="41" value="USER" style="text;html=1;align=center;verticalAlign=middle;resizable=0;points=[];autosize=1;strokeColor=none;fillColor=none;fontSize=13;fontStyle=1" vertex="1" parent="1">
                    <mxGeometry x="10" y="78" width="60" height="30" as="geometry"/>
                </mxCell>
                <mxCell id="82" value="" style="endArrow=none;dashed=1;html=1;dashPattern=1 3;strokeWidth=3;fontSize=13;fontStyle=1" edge="1" parent="1" source="15" target="81">
                    <mxGeometry width="50" height="50" relative="1" as="geometry">
                        <mxPoint x="244" y="510" as="sourcePoint"/>
                        <mxPoint x="240" y="110" as="targetPoint"/>
                    </mxGeometry>
                </mxCell>
                <mxCell id="81" value="" style="rounded=0;whiteSpace=wrap;html=1;fillColor=default;strokeWidth=3;fontSize=13;fontStyle=1" vertex="1" parent="1">
                    <mxGeometry x="235" y="300" width="10" height="80" as="geometry"/>
                </mxCell>
                <mxCell id="83" value="" style="endArrow=classic;html=1;exitX=1.258;exitY=0.282;exitDx=0;exitDy=0;exitPerimeter=0;strokeWidth=3;fontSize=13;fontStyle=1" edge="1" parent="1">
                    <mxGeometry width="50" height="50" relative="1" as="geometry">
                        <mxPoint x="44" y="320" as="sourcePoint"/>
                        <mxPoint x="230" y="320" as="targetPoint"/>
                    </mxGeometry>
                </mxCell>
                <mxCell id="84" value="" style="edgeStyle=elbowEdgeStyle;elbow=horizontal;endArrow=classic;html=1;curved=0;rounded=0;endSize=8;startSize=8;strokeWidth=3;fontSize=13;fontStyle=1;exitX=0.008;exitY=0.875;exitDx=0;exitDy=0;exitPerimeter=0;entryX=1.5;entryY=0.678;entryDx=0;entryDy=0;entryPerimeter=0;" edge="1" parent="1" source="87" target="40">
                    <mxGeometry width="50" height="50" relative="1" as="geometry">
                        <mxPoint x="490" y="475" as="sourcePoint"/>
                        <mxPoint x="530" y="500" as="targetPoint"/>
                        <Array as="points">
                            <mxPoint x="554" y="415"/>
                        </Array>
                    </mxGeometry>
                </mxCell>
                <mxCell id="85" value="" style="endArrow=classic;html=1;entryX=1;entryY=0.25;entryDx=0;entryDy=0;dashed=1;exitX=0.2;exitY=0.685;exitDx=0;exitDy=0;exitPerimeter=0;strokeWidth=3;fontSize=13;fontStyle=1" edge="1" parent="1" source="40" target="15">
                    <mxGeometry width="50" height="50" relative="1" as="geometry">
                        <mxPoint x="250" y="571" as="sourcePoint"/>
                        <mxPoint x="50" y="642" as="targetPoint"/>
                    </mxGeometry>
                </mxCell>
                <mxCell id="86" value="Username dan password Benar()" style="text;html=1;align=center;verticalAlign=middle;resizable=0;points=[];autosize=1;strokeColor=none;fillColor=none;fontSize=13;fontStyle=1" vertex="1" parent="1">
                    <mxGeometry x="265" y="450" width="210" height="30" as="geometry"/>
                </mxCell>
                <mxCell id="87" value="validasi username&amp;nbsp;&lt;div&gt;dan password()&lt;/div&gt;" style="text;html=1;align=center;verticalAlign=middle;resizable=0;points=[];autosize=1;strokeColor=none;fillColor=none;fontSize=13;fontStyle=1" vertex="1" parent="1">
                    <mxGeometry x="485" y="320" width="130" height="40" as="geometry"/>
                </mxCell>
            </root>
        </mxGraphModel>
    </diagram>
</mxfile>